<svg version="1.1" id="Layer_1" xmlns="http://www.w3.org/2000/svg" xmlns:xlink="http://www.w3.org/1999/xlink" x="0px" y="0px"
	 width="100%" viewBox="0 0 1030 544" enable-background="new 0 0 1030 544" xml:space="preserve">
<path fill="#4B81EF" opacity="1.000000" stroke="none" 
	d="
M1031.000000,286.000000 
	C1031.000000,372.321747 1031.000000,458.643524 1031.000000,544.982666 
	C687.724304,544.982666 344.448578,544.982666 1.086434,544.982666 
	C1.086434,363.748657 1.086434,182.497238 1.086434,1.122912 
	C344.333313,1.122912 687.666626,1.122912 1031.000000,1.119443 
	C1031.000000,88.104179 1031.000000,175.092392 1030.531372,262.539551 
	C1017.144409,262.602997 1004.225647,261.768097 993.364746,271.175751 
	C989.800781,274.262848 989.320374,275.518341 993.200439,278.047394 
	C996.255005,280.038361 999.144104,282.474640 1002.469482,283.808624 
	C1006.325134,285.355377 1010.543030,286.516418 1014.666016,286.751373 
	C1020.078857,287.059784 1025.552490,286.300262 1031.000000,286.000000 
M630.363220,185.296875 
	C629.642273,185.830765 628.921387,186.364670 627.588074,187.074066 
	C626.997742,187.649689 626.407471,188.225311 625.210388,189.267502 
	C624.944336,189.976334 624.678345,190.685165 624.043213,191.695435 
	C624.161255,193.330551 624.279358,194.965683 624.465759,197.480377 
	C624.560852,198.356995 624.655884,199.233612 624.462646,200.791901 
	C624.312134,202.864105 624.161621,204.936295 623.072388,207.016373 
	C616.098816,207.024094 609.114136,206.788849 602.154602,207.105850 
	C594.748108,207.443268 587.365417,208.303604 579.041138,208.930054 
	C573.828003,208.915146 568.614929,208.900223 563.244751,207.975250 
	C563.186340,205.645523 563.077698,203.315796 563.077026,200.986053 
	C563.066223,164.009079 563.081909,127.032082 563.041016,90.055153 
	C563.038269,87.581589 562.631409,85.108467 562.275391,82.100197 
	C557.321777,79.114670 552.272339,76.274490 547.446350,73.095284 
	C543.911865,70.766899 540.923340,71.121811 537.321167,73.154945 
	C505.842194,90.922523 474.240143,108.472153 442.780182,126.273125 
	C439.381348,128.196289 436.896332,128.013031 433.643433,126.172516 
	C404.648560,109.766953 375.369476,93.851242 346.637543,77.001022 
	C337.922211,71.889801 330.653137,69.876007 322.479004,76.911247 
	C320.750946,78.398521 318.292084,79.010513 316.436493,80.385506 
	C315.308502,81.221367 314.691284,82.746468 313.686920,84.898201 
	C313.663361,131.146881 313.612183,177.395615 313.716980,223.643997 
	C313.721191,225.498627 314.685699,228.202271 316.087585,229.053894 
	C321.889465,232.578552 328.031952,235.542496 334.718933,238.872864 
	C335.411499,238.870712 336.104065,238.868561 337.205566,239.162186 
	C337.799988,239.088486 338.394409,239.014771 339.782806,239.040359 
	C340.848846,239.049286 341.914856,239.058212 343.632782,239.401260 
	C345.744110,239.237137 347.855408,239.073013 350.842560,238.940781 
	C352.883057,238.885910 354.923523,238.831024 357.883026,238.893982 
	C361.902435,238.545242 365.921875,238.196503 370.845276,237.889587 
	C373.546631,237.827271 376.247986,237.764954 379.885406,237.845810 
	C385.360168,237.858765 390.839905,238.005951 396.306671,237.803177 
	C397.954132,237.742065 399.565521,236.708542 401.945129,236.153061 
	C402.948029,236.138153 403.950958,236.123260 405.691254,236.465988 
	C410.112610,236.280548 414.533997,236.095108 419.794373,235.947754 
	C421.195068,235.912613 422.595734,235.877457 424.931396,235.916138 
	C430.401093,235.908142 435.871185,235.939621 441.340363,235.882248 
	C448.264557,235.809601 455.187958,235.664703 461.559021,236.082367 
	C448.169159,243.753555 434.753235,251.380081 421.425507,259.157776 
	C419.919830,260.036469 418.911530,261.767548 417.488007,264.008118 
	C417.549164,271.000214 417.610321,277.992340 417.508606,285.476318 
	C417.974487,285.882172 418.440369,286.288025 419.476868,287.119507 
	C421.341125,288.147064 423.205414,289.174622 425.277313,290.759338 
	C426.516144,291.358246 427.755005,291.957153 429.617737,292.937927 
	C432.776245,294.689484 435.934784,296.441010 439.286865,298.752319 
	C440.518768,299.351990 441.750641,299.951660 443.555389,300.873383 
	C443.758514,300.955444 443.961639,301.037476 444.330536,301.595795 
	C444.909515,301.812195 445.488464,302.028595 446.694092,302.637085 
	C447.782074,303.211060 448.870056,303.785034 450.146332,304.843079 
	C450.752716,305.085968 451.359100,305.328827 452.551270,305.875305 
	C452.754456,305.959473 452.957642,306.043640 453.339905,306.689514 
	C454.557373,307.286163 455.774872,307.882812 457.600800,308.806427 
	C457.815002,308.890930 458.029175,308.975403 458.385315,309.537689 
	C458.948181,309.760651 459.511078,309.983612 460.689087,310.622681 
	C463.471283,312.173584 466.253479,313.724487 469.234985,315.741943 
	C469.829041,315.978699 470.423065,316.215424 471.627960,316.781403 
	C471.842834,316.867065 472.057678,316.952698 472.406921,317.517914 
	C472.970520,317.726105 473.534149,317.934326 474.726593,318.549927 
	C475.829346,319.128387 476.932068,319.706818 478.253265,320.828705 
	C479.481201,321.434967 480.709106,322.041229 482.487122,322.986755 
	C482.686798,323.067627 482.886505,323.148499 483.268799,323.699310 
	C483.856232,323.931427 484.443695,324.163544 485.654755,324.783325 
	C487.779694,325.946289 489.904633,327.109253 492.247131,328.821289 
	C493.482727,329.421783 494.718292,330.022278 496.515167,330.948700 
	C496.715912,331.029358 496.916656,331.110046 497.294189,331.663300 
	C497.879761,331.884277 498.465302,332.105286 499.677094,332.716522 
	C501.812775,333.884369 503.948486,335.052216 506.289276,336.770660 
	C507.511292,337.378357 508.733337,337.986023 510.525818,338.919983 
	C510.728851,339.002289 510.931854,339.084564 511.311493,339.638947 
	C511.892853,339.865814 512.474182,340.092682 513.682556,340.708984 
	C515.822205,341.871826 517.961914,343.034637 520.295471,344.754211 
	C521.525269,345.339020 522.755066,345.923828 524.604675,346.890411 
	C526.727417,348.049255 528.850159,349.208099 531.153870,350.847107 
	C531.751770,351.096100 532.349670,351.345123 533.532837,351.897766 
	C533.734802,351.984344 533.936829,352.070953 534.336426,352.731476 
	C536.621094,353.999725 538.905823,355.267944 542.219604,356.692230 
	C562.175598,356.405334 582.135376,356.262329 602.085083,355.736328 
	C607.472778,355.594299 613.169128,355.178192 618.111633,353.287567 
	C623.765015,351.125000 628.735840,347.177979 634.729797,343.943726 
	C647.821777,336.299347 660.913757,328.654968 674.654480,320.723572 
	C684.105042,315.153473 693.555603,309.583374 703.709839,303.859924 
	C706.705200,302.415131 709.613464,300.735229 712.718079,299.585327 
	C716.551758,298.165405 720.504150,296.383850 724.483032,296.163391 
	C737.597534,295.436737 750.749390,295.415283 763.882629,294.990448 
	C782.159912,294.399261 800.429443,293.535400 818.709351,293.062683 
	C849.643555,292.262787 880.584167,291.712463 911.520081,290.977386 
	C918.995422,290.799744 926.466064,290.355713 933.932129,289.920044 
	C935.207275,289.845642 936.584961,289.422119 937.682129,288.768463 
	C942.401550,285.956757 947.045776,283.017700 951.693359,280.086975 
	C954.120361,278.556519 954.616882,276.491333 951.897461,275.118500 
	C943.383911,270.820770 935.464844,264.812256 924.997192,265.930969 
	C920.684875,266.391815 916.282288,266.007263 910.598083,266.007263 
	C912.159546,264.212280 912.475220,263.600006 912.977112,263.308167 
	C939.016907,248.166611 965.050415,233.013824 991.155273,217.985016 
	C994.335388,216.154205 995.650452,214.740585 992.253052,211.859756 
	C983.357788,204.316895 973.310608,201.141724 961.725586,203.334747 
	C960.419250,203.582047 959.102295,203.889236 957.782532,203.932297 
	C936.009827,204.642776 914.236023,205.321823 892.462097,205.993607 
	C881.492126,206.332077 870.521729,206.658478 859.550720,206.961517 
	C834.611511,207.650406 809.674011,208.468796 784.729919,208.839722 
	C781.021301,208.894882 777.282043,206.804169 773.554749,205.713852 
	C770.440674,204.802887 767.330750,203.171738 764.205933,203.139954 
	C755.905701,203.055481 747.600647,203.851059 739.293274,203.952820 
	C725.966797,204.116089 712.636658,203.958954 699.308838,204.050491 
	C697.205200,204.064911 695.105652,204.674301 692.151245,205.029633 
	C683.509216,205.021286 674.867249,205.012955 666.099365,204.068771 
	C665.885132,199.456161 665.670898,194.843552 665.539490,189.717850 
	C663.869690,188.269806 662.315552,186.654053 660.507385,185.406418 
	C655.825989,182.176132 651.032715,179.108124 647.068176,175.844864 
	C652.573486,172.860001 658.151184,169.996796 663.527161,166.794815 
	C664.700684,166.095840 665.813354,164.193832 665.827820,162.833908 
	C665.903076,155.750214 665.614441,148.662659 665.398621,141.066406 
	C664.566895,140.473251 663.735229,139.880096 662.502197,138.835159 
	C661.782776,138.506424 661.063354,138.177673 659.949524,137.296844 
	C656.962830,135.720688 653.976196,134.144531 650.556946,132.193420 
	C650.203308,132.058762 649.849731,131.924088 649.186401,131.302200 
	C648.109863,130.815903 647.033386,130.329590 645.309753,129.708023 
	C644.878296,129.777908 644.446899,129.847794 643.481812,129.795807 
	C640.832214,131.465775 638.182617,133.135757 634.966797,134.918793 
	C634.649597,135.131470 634.332458,135.344147 633.349121,135.579910 
	C631.104309,136.995575 628.859558,138.411224 626.118469,139.886932 
	C625.680298,140.572952 625.242188,141.258987 624.600098,142.871399 
	C624.565918,148.987839 624.416077,155.107300 624.574768,161.218735 
	C624.617249,162.856079 625.601257,164.469009 626.337708,166.549515 
	C626.908813,166.760666 627.479919,166.971832 628.653931,167.638397 
	C633.140930,170.171021 637.627869,172.703629 642.237549,175.978729 
	C641.260681,177.324600 640.525635,178.990540 639.256409,179.949554 
	C636.633911,181.931122 633.726746,183.536133 630.363220,185.296875 
M571.724304,407.529297 
	C571.193970,408.812897 570.212219,410.093048 570.202515,411.380554 
	C570.092834,425.856476 570.156250,440.333588 570.113647,454.810211 
	C570.104431,457.931152 570.978271,459.960754 574.595459,459.918213 
	C578.331299,459.874207 578.858887,457.550629 578.853516,454.579285 
	C578.827515,440.268982 578.906921,425.957855 578.740784,411.649445 
	C578.724365,410.237671 577.292419,408.842346 575.848022,407.447174 
	C574.732849,407.457916 573.617737,407.468658 571.724304,407.529297 
M341.792664,435.499573 
	C341.794250,441.832611 341.788727,448.165680 341.801331,454.498718 
	C341.805695,456.699951 341.612061,458.984436 344.886719,459.096619 
	C348.184357,459.209595 348.705078,457.278900 348.657379,454.593964 
	C348.521240,446.929718 348.455200,439.264008 348.414581,431.598572 
	C348.405762,429.935852 348.618317,428.271942 348.728882,426.608582 
	C350.709717,428.060211 351.522461,429.615509 352.174866,431.235352 
	C355.348175,439.114197 358.348053,447.066956 361.727203,454.855591 
	C362.458527,456.541138 364.514343,458.752258 365.932007,458.732269 
	C367.367157,458.712036 369.347137,456.476746 370.083588,454.776459 
	C373.391602,447.138947 376.303467,439.330780 379.452118,431.622559 
	C380.125458,429.974091 381.189789,428.485321 382.073975,426.923004 
	C382.575195,427.071777 383.076416,427.220520 383.577637,427.369293 
	C383.577637,429.122742 383.588470,430.876251 383.575745,432.629608 
	C383.524994,439.628784 383.403198,446.628296 383.447723,453.626801 
	C383.462341,455.926941 382.527008,458.996948 386.619049,459.073547 
	C391.044098,459.156372 390.069885,455.884583 390.082092,453.409180 
	C390.143799,440.910095 390.170471,428.409973 390.054352,415.911652 
	C390.034027,413.726746 391.395416,410.527496 387.343262,410.089325 
	C383.786041,409.704712 381.130035,410.140442 379.644012,414.372986 
	C376.336548,423.793732 372.429138,433.005463 368.688599,442.270996 
	C368.011597,443.948059 366.964722,445.475769 365.606598,447.950745 
	C363.976074,444.051422 362.784546,441.318634 361.684570,438.549469 
	C358.426208,430.346619 355.018585,422.195770 352.047363,413.889374 
	C350.600708,409.845123 347.777954,409.761963 344.496429,410.091919 
	C340.814667,410.462097 341.873657,413.390442 341.835358,415.501221 
	C341.720551,421.832153 341.794189,428.166504 341.792664,435.499573 
M606.020874,411.612335 
	C605.921326,422.250366 605.644226,432.890564 605.773315,443.525818 
	C605.896851,453.705719 612.547119,459.635162 623.324890,459.677612 
	C634.048706,459.719849 640.663696,453.841125 640.916321,443.588928 
	C641.153931,433.943054 640.993896,424.287354 641.007629,414.635986 
	C641.010864,412.373596 641.021423,410.254639 637.755798,410.235138 
	C634.311707,410.214569 634.185120,412.344116 634.191833,414.880005 
	C634.216858,424.364929 634.304626,433.852539 634.116516,443.334167 
	C633.972046,450.618256 629.807129,454.282776 622.608704,453.935364 
	C616.049316,453.618774 612.611511,449.918976 612.427185,442.289032 
	C612.210205,433.308136 612.227966,424.316254 612.392639,415.333649 
	C612.476990,410.735718 610.959961,409.035370 606.020874,411.612335 
M401.774139,441.276581 
	C398.249512,446.325897 397.931183,451.140625 400.863190,455.056000 
	C403.984467,459.224121 410.237671,460.918579 415.783417,458.920990 
	C418.226959,458.040802 420.141998,456.854004 423.058807,458.717987 
	C426.172760,460.707977 428.153961,458.811127 428.019043,455.024811 
	C427.782532,448.387573 427.741028,441.743622 427.539307,435.104858 
	C427.234985,425.091095 419.464325,419.509827 409.753723,422.273376 
	C403.628845,424.016510 400.694305,427.029388 400.119263,433.679321 
	C402.902283,432.369446 405.427185,431.851379 406.939209,430.328033 
	C409.961426,427.283142 413.514526,426.466278 416.881927,428.216888 
	C418.706421,429.165436 419.388123,432.312225 420.585327,434.467438 
	C419.006470,435.279144 417.502533,436.326660 415.834229,436.857117 
	C411.354156,438.281555 406.803802,439.484863 401.774139,441.276581 
M542.939087,422.593262 
	C536.176270,425.198883 534.180847,427.559906 534.865479,433.849304 
	C537.380554,432.323059 539.589050,431.385620 541.279236,429.870056 
	C544.421143,427.052704 548.045837,426.471344 551.359985,428.393066 
	C553.061707,429.379852 554.762329,432.563202 554.441528,434.401093 
	C553.700012,438.650665 549.513000,436.058167 547.005676,437.035492 
	C542.960815,438.612213 538.388306,439.692627 535.191833,442.363037 
	C531.522888,445.428131 532.027832,451.376129 534.927002,455.145020 
	C538.116638,459.291504 544.419128,460.963440 549.876831,458.806824 
	C552.398560,457.810394 554.387268,456.854095 557.202332,458.693939 
	C558.888733,459.796051 562.352661,460.493835 562.099854,455.947845 
	C561.740845,449.492004 561.502014,443.024445 561.419556,436.559265 
	C561.271973,424.996094 555.349060,420.188080 542.939087,422.593262 
M458.680267,432.104980 
	C458.134491,435.860931 456.907288,439.664185 457.164368,443.364380 
	C458.127289,457.224701 472.383575,464.620789 483.106964,456.922180 
	C484.570770,455.871307 485.008636,453.391388 485.921478,451.573059 
	C484.069885,451.813751 481.929260,451.538910 480.417725,452.386230 
	C474.517944,455.693695 467.389893,454.033417 465.051178,448.443359 
	C463.755310,445.346008 464.147644,443.211426 468.186310,443.234009 
	C473.344421,443.262878 478.512726,443.389954 483.655182,443.097656 
	C485.115936,443.014618 487.400879,441.911530 487.770996,440.775543 
	C489.630157,435.069275 484.869995,425.653229 479.251190,423.112579 
	C471.495422,419.605652 463.881592,422.730133 458.680267,432.104980 
M438.904541,440.481995 
	C438.974670,444.469086 438.763275,448.486176 439.184174,452.435883 
	C439.746307,457.710571 444.020447,460.670532 449.163483,459.482910 
	C450.284332,459.224091 451.741882,457.828308 451.893707,456.788177 
	C452.015594,455.953217 450.495605,454.148712 449.532135,454.015137 
	C445.909912,453.512848 445.464844,451.195160 445.483215,448.296661 
	C445.515930,443.144073 445.555878,437.989868 445.458801,432.838837 
	C445.403229,429.888367 445.641876,427.544159 449.567749,427.621826 
	C450.353729,427.637360 451.544189,426.119171 451.828094,425.106384 
	C451.983887,424.550629 450.623413,422.886383 449.968903,422.898773 
	C445.988281,422.973938 445.557434,420.677856 445.289490,417.452179 
	C445.182312,416.161377 443.106354,415.034088 441.926544,413.832367 
	C440.923309,415.026184 439.176880,416.154877 439.065460,417.426788 
	C438.801819,420.437103 438.292236,422.587738 434.701324,422.857178 
	C433.940643,422.914215 432.605774,424.396332 432.719604,424.997711 
	C432.911407,426.010895 434.025452,427.602173 434.795868,427.627960 
	C439.020691,427.769501 438.986145,430.535797 438.910706,433.515015 
	C438.860260,435.508331 438.904144,437.504028 438.904541,440.481995 
M657.063904,458.416748 
	C657.356567,456.818390 657.894409,455.221405 657.903137,453.621490 
	C657.973267,440.799042 657.949341,427.976074 657.938965,415.153259 
	C657.936951,412.672852 658.415283,409.967896 654.455322,409.953491 
	C650.490601,409.939056 650.940491,412.655457 650.937073,415.132629 
	C650.919006,428.121979 651.035156,441.112671 650.867432,454.099854 
	C650.812195,458.376465 652.251282,460.050964 657.063904,458.416748 
M494.565887,448.435638 
	C494.568390,450.600739 494.197449,452.856903 494.696167,454.900940 
	C495.068726,456.427948 496.329987,458.533356 497.606445,458.883514 
	C500.500885,459.677643 501.134186,457.470306 501.110657,454.960968 
	C501.052887,448.799377 501.223694,442.633667 501.067780,436.475586 
	C500.943085,431.552307 503.435699,428.863831 507.986115,428.343536 
	C510.994812,427.999481 513.287598,427.177795 511.885529,424.013794 
	C511.366638,422.842834 508.257080,422.518616 506.286835,422.370728 
	C503.993286,422.198639 501.615448,422.989319 499.342621,422.739441 
	C495.918243,422.362946 494.415436,423.293915 494.515717,426.970062 
	C494.701904,433.793335 494.567627,440.625366 494.565887,448.435638 
M524.656128,435.519409 
	C524.655029,432.526550 524.594360,429.532196 524.671387,426.541351 
	C524.734924,424.071014 524.157776,421.807007 521.253052,422.478424 
	C519.946228,422.780548 518.176697,424.916321 518.139648,426.262054 
	C517.874207,435.898315 517.877502,445.548798 518.144531,455.185089 
	C518.181824,456.532562 519.921021,458.654236 521.228943,458.978210 
	C524.156494,459.703247 524.692505,457.434418 524.669800,454.968018 
	C524.613159,448.816589 524.653992,442.664246 524.656128,435.519409 
M596.647278,440.984497 
	C597.829224,439.998840 599.011169,439.013184 600.193176,438.027557 
	C599.017395,437.197571 597.902100,435.780212 596.654114,435.651855 
	C593.391907,435.316315 590.044983,435.307922 586.788696,435.674103 
	C585.624878,435.804993 584.624023,437.385590 583.548767,438.304474 
	C584.676086,439.186707 585.723999,440.669647 586.946655,440.831329 
	C589.864807,441.217346 592.865356,440.980133 596.647278,440.984497 
M522.155640,416.891235 
	C523.101257,415.273468 524.691956,413.675232 524.741760,412.030334 
	C524.770020,411.097931 522.130859,409.176208 520.948608,409.358429 
	C519.635010,409.560883 517.475098,411.952179 517.713867,412.851501 
	C518.132996,414.429871 520.098877,415.597534 522.155640,416.891235 
z"/>
<path fill="#477BE4" opacity="1.000000" stroke="none" 
	d="
M1031.000000,285.531372 
	C1025.552490,286.300262 1020.078857,287.059784 1014.666016,286.751373 
	C1010.543030,286.516418 1006.325134,285.355377 1002.469482,283.808624 
	C999.144104,282.474640 996.255005,280.038361 993.200439,278.047394 
	C989.320374,275.518341 989.800781,274.262848 993.364746,271.175751 
	C1004.225647,261.768097 1017.144409,262.602997 1030.531372,262.999268 
	C1031.000000,270.354248 1031.000000,277.708496 1031.000000,285.531372 
z"/>
<path fill="#467AE0" opacity="1.000000" stroke="none" 
	d="
M693.004211,205.008606 
	C695.105652,204.674301 697.205200,204.064911 699.308838,204.050491 
	C712.636658,203.958954 725.966797,204.116089 739.293274,203.952820 
	C747.600647,203.851059 755.905701,203.055481 764.205933,203.139954 
	C767.330750,203.171738 770.440674,204.802887 773.554749,205.713852 
	C777.282043,206.804169 781.021301,208.894882 784.729919,208.839722 
	C809.674011,208.468796 834.611511,207.650406 859.550720,206.961517 
	C870.521729,206.658478 881.492126,206.332077 892.462097,205.993607 
	C914.236023,205.321823 936.009827,204.642776 957.782532,203.932297 
	C959.102295,203.889236 960.419250,203.582047 961.725586,203.334747 
	C973.310608,201.141724 983.357788,204.316895 992.253052,211.859756 
	C995.650452,214.740585 994.335388,216.154205 991.155273,217.985016 
	C965.050415,233.013824 939.016907,248.166611 912.977112,263.308167 
	C912.475220,263.600006 912.159546,264.212280 910.598083,266.007263 
	C916.282288,266.007263 920.684875,266.391815 924.997192,265.930969 
	C935.464844,264.812256 943.383911,270.820770 951.897461,275.118500 
	C954.616882,276.491333 954.120361,278.556519 951.693359,280.086975 
	C947.045776,283.017700 942.401550,285.956757 937.682129,288.768463 
	C936.584961,289.422119 935.207275,289.845642 933.932129,289.920044 
	C926.466064,290.355713 918.995422,290.799744 911.520081,290.977386 
	C880.584167,291.712463 849.643555,292.262787 818.709351,293.062683 
	C800.429443,293.535400 782.159912,294.399261 763.882629,294.990448 
	C750.749390,295.415283 737.597534,295.436737 724.483032,296.163391 
	C720.504150,296.383850 716.551758,298.165405 712.718079,299.585327 
	C709.613464,300.735229 706.705200,302.415131 703.440918,303.601013 
	C704.108887,302.234802 704.828491,300.697632 706.020569,300.094818 
	C711.083069,297.534698 712.270569,293.249756 712.018494,288.101898 
	C711.897522,285.629974 711.973450,283.147827 711.980042,280.670380 
	C711.989563,277.084290 710.340698,275.258850 706.642578,274.933868 
	C705.049316,274.793823 703.541687,273.680756 702.427368,273.001007 
	C705.829712,272.665375 708.794250,272.123138 711.770691,272.047455 
	C728.057373,271.633179 744.347351,271.353149 760.634705,270.963928 
	C762.259033,270.925110 763.873291,270.461548 766.614807,270.010345 
	C764.657959,268.233429 763.831360,267.186066 762.759705,266.554199 
	C747.001404,257.263672 731.297546,247.874222 715.367371,238.886337 
	C711.291809,236.586823 706.476379,235.598587 702.279053,233.761139 
	C703.609375,233.059021 704.681763,232.171570 705.710144,232.219955 
	C711.457825,232.490387 712.184448,228.966370 712.025696,224.461777 
	C711.891357,220.652328 711.868774,216.829025 712.030579,213.021805 
	C712.195374,209.144180 710.698730,207.256271 706.665466,206.939026 
	C702.089478,206.579086 697.556091,205.675720 693.004211,205.008606 
M843.288635,238.889313 
	C847.376831,236.581573 851.465027,234.273819 855.553223,231.966080 
	C855.373718,231.298935 855.194214,230.631805 855.014648,229.964676 
	C844.554321,230.439621 834.093933,230.914581 823.633545,231.389526 
	C823.463135,231.979584 823.292725,232.569641 823.122314,233.159698 
	C826.552673,235.203003 830.055603,237.135574 833.392456,239.321579 
	C836.567078,241.401306 839.561890,241.472809 843.288635,238.889313 
z"/>
<path fill="#939495" opacity="1.000000" stroke="none" 
	d="
M562.412598,82.635132 
	C562.631409,85.108467 563.038269,87.581589 563.041016,90.055153 
	C563.081909,127.032082 563.066223,164.009079 563.077026,200.986053 
	C563.077698,203.315796 563.186340,205.645523 563.223267,208.902496 
	C563.149292,212.287476 562.728516,214.804321 563.111877,217.192062 
	C564.375122,225.059982 561.816833,230.549347 553.678345,233.241211 
	C534.314270,243.967529 515.254150,254.551483 496.259766,265.252106 
	C491.356964,268.014130 486.660645,271.142639 481.527466,274.036072 
	C474.370178,270.079712 467.554932,266.190063 459.745789,261.733185 
	C462.377258,260.040710 463.687225,259.105103 465.080231,258.316071 
	C489.390503,244.546356 513.724121,230.817749 537.999084,216.986145 
	C539.591736,216.078720 540.752747,214.413742 542.173035,212.627243 
	C542.242737,203.104874 542.253845,194.056396 542.425537,184.631958 
	C542.686768,179.115936 542.922729,173.974136 542.856628,168.836243 
	C542.758728,161.229324 542.446533,153.625168 542.241028,145.553741 
	C542.205750,140.716675 542.155029,136.345688 542.286499,131.616135 
	C542.581604,127.963280 542.963989,124.641663 542.634583,121.392242 
	C542.542053,120.479904 540.073853,118.880013 539.187012,119.158920 
	C536.949036,119.862740 534.990906,121.456276 532.610107,122.855682 
	C530.032410,124.168083 527.765320,125.318092 525.174744,126.431854 
	C524.220947,126.897949 523.590576,127.400291 522.712158,128.057098 
	C521.930969,128.773346 521.397766,129.335098 520.528015,129.992905 
	C501.918671,140.406311 483.678101,150.781387 465.359436,161.016678 
	C456.225311,166.120255 446.948212,170.968033 437.726746,175.467361 
	C437.733887,169.014191 437.905334,163.020065 437.707825,157.038116 
	C437.589600,153.457474 438.803650,151.231277 442.019836,149.453171 
	C482.187103,127.246284 522.291809,104.926178 562.412598,82.635132 
z"/>
<path fill="#D0D2D6" opacity="1.000000" stroke="none" 
	d="
M562.343994,82.367661 
	C522.291809,104.926178 482.187103,127.246284 442.019836,149.453171 
	C438.803650,151.231277 437.589600,153.457474 437.707825,157.038116 
	C437.905334,163.020065 437.733887,169.014191 437.534241,175.624634 
	C436.474060,176.001816 435.597443,175.757568 434.967163,175.132843 
	C435.437317,167.818832 435.880798,160.879761 435.706909,153.956223 
	C435.670410,152.502792 433.616882,150.676468 432.058960,149.757080 
	C424.772217,145.456879 417.305115,141.463974 409.954498,137.270065 
	C381.395966,120.976013 352.879333,104.608315 324.280701,88.385078 
	C321.016174,86.533188 317.333435,85.418472 313.844604,83.961945 
	C314.691284,82.746468 315.308502,81.221367 316.436493,80.385506 
	C318.292084,79.010513 320.750946,78.398521 322.479004,76.911247 
	C330.653137,69.876007 337.922211,71.889801 346.637543,77.001022 
	C375.369476,93.851242 404.648560,109.766953 433.643433,126.172516 
	C436.896332,128.013031 439.381348,128.196289 442.780182,126.273125 
	C474.240143,108.472153 505.842194,90.922523 537.321167,73.154945 
	C540.923340,71.121811 543.911865,70.766899 547.446350,73.095284 
	C552.272339,76.274490 557.321777,79.114670 562.343994,82.367661 
z"/>
<path fill="#FCFCFE" opacity="1.000000" stroke="none" 
	d="
M313.765747,84.430069 
	C317.333435,85.418472 321.016174,86.533188 324.280701,88.385078 
	C352.879333,104.608315 381.395966,120.976013 409.954498,137.270065 
	C417.305115,141.463974 424.772217,145.456879 432.058960,149.757080 
	C433.616882,150.676468 435.670410,152.502792 435.706909,153.956223 
	C435.880798,160.879761 435.437317,167.818832 434.600586,175.056732 
	C412.458557,163.070618 390.948547,150.746506 369.385162,138.516556 
	C364.772644,135.900497 359.966431,133.625946 355.131592,130.906586 
	C348.524536,126.779198 342.035309,122.939301 334.267609,118.342873 
	C334.267609,124.219490 334.274994,128.489441 334.266449,132.759354 
	C334.195740,168.077026 334.122070,203.394699 334.049316,238.712372 
	C328.031952,235.542496 321.889465,232.578552 316.087585,229.053894 
	C314.685699,228.202271 313.721191,225.498627 313.716980,223.643997 
	C313.612183,177.395615 313.663361,131.146881 313.765747,84.430069 
z"/>
<path fill="#929395" opacity="1.000000" stroke="none" 
	d="
M665.456604,190.230942 
	C665.670898,194.843552 665.885132,199.456161 666.086304,204.999451 
	C666.259949,215.934692 666.446716,225.939255 666.534546,236.348099 
	C666.372864,249.159592 666.310181,261.566803 666.176392,274.432617 
	C666.061646,276.369812 665.790466,277.883911 666.014893,279.320557 
	C666.859314,284.725586 664.454468,287.754700 659.613647,289.982727 
	C654.866638,292.167603 650.531555,295.247528 645.695557,298.011749 
	C644.748230,298.685974 644.121094,299.283081 643.219849,299.880798 
	C642.300110,300.197479 641.654480,300.513550 640.650330,300.899933 
	C617.077209,313.944061 593.895325,326.977020 570.632080,339.862885 
	C561.209900,345.081970 551.609924,349.980225 541.935303,354.882202 
	C541.441589,354.477417 541.103455,354.214874 540.788208,353.487427 
	C540.834473,345.985748 540.857971,338.948944 541.231567,331.833801 
	C547.184265,328.241516 552.786865,324.727570 558.660950,321.166016 
	C559.271729,320.978577 559.610962,320.838776 560.300659,320.671143 
	C565.480347,317.786407 570.309570,314.929565 575.351562,312.024567 
	C575.564331,311.976410 575.970459,311.816772 576.298340,311.777649 
	C577.818604,310.861847 579.010986,309.985138 580.401733,309.063324 
	C580.600098,309.018219 580.977966,308.867188 581.275146,308.814087 
	C582.167114,308.238098 582.761902,307.715210 583.633179,307.152222 
	C584.259338,306.985199 584.609009,306.858215 585.283569,306.696472 
	C586.797302,305.806152 587.986023,304.950623 589.380249,304.055298 
	C589.585693,304.015533 589.977417,303.868256 590.307373,303.826294 
	C591.847961,302.905273 593.058594,302.026215 594.557495,301.091431 
	C595.213867,300.903320 595.581848,300.770905 596.295776,300.616364 
	C603.533081,296.454651 610.424622,292.315063 617.647705,288.123474 
	C618.968262,287.563263 619.957214,287.055054 621.228516,286.539490 
	C622.056946,286.047150 622.603027,285.562164 623.359131,285.030853 
	C623.569153,284.984558 623.970642,284.830536 624.299072,284.789307 
	C625.830261,283.873322 627.033020,282.998596 628.427307,282.086945 
	C628.618896,282.049988 628.982727,281.909088 629.341553,281.859314 
	C633.231384,279.967316 636.677246,277.931427 640.315002,276.332153 
	C644.799866,274.360474 646.006714,271.106720 645.964233,266.389893 
	C645.764709,244.240234 645.871826,222.087799 646.135010,199.803055 
	C646.573730,199.573593 646.746948,199.477417 647.255920,199.403778 
	C653.546631,196.361191 659.501648,193.296066 665.456604,190.230942 
z"/>
<path fill="#FBFCFE" opacity="1.000000" stroke="none" 
	d="
M540.881470,331.912170 
	C540.857971,338.948944 540.834473,345.985748 540.433899,353.493805 
	C538.084167,353.362579 536.111511,352.760071 534.138855,352.157532 
	C533.936829,352.070953 533.734802,351.984344 533.151733,351.504211 
	C532.171326,350.862762 531.572144,350.614868 530.972900,350.366943 
	C528.850159,349.208099 526.727417,348.049255 524.190674,346.430481 
	C522.551636,345.379517 521.326599,344.788513 520.101562,344.197479 
	C517.961914,343.034637 515.822205,341.871826 513.267700,340.295227 
	C512.280151,339.643250 511.707489,339.405060 511.134857,339.166840 
	C510.931854,339.084564 510.728851,339.002289 510.143799,338.481049 
	C508.535919,337.434753 507.310059,336.827393 506.084198,336.220032 
	C503.948486,335.052216 501.812775,333.884369 499.264832,332.299988 
	C498.274170,331.652557 497.695801,331.421631 497.117432,331.190735 
	C496.916656,331.110046 496.715912,331.029358 496.135986,330.507111 
	C494.514404,329.467743 493.271973,328.869995 492.029572,328.272217 
	C489.904633,327.109253 487.779694,325.946289 485.248993,324.360962 
	C484.257538,323.702179 483.671875,323.465759 483.086182,323.229340 
	C482.886505,323.148499 482.686798,323.067627 482.121155,322.535492 
	C480.515076,321.484589 479.274963,320.884918 478.034821,320.285278 
	C476.932068,319.706818 475.829346,319.128387 474.308899,318.143402 
	C473.351624,317.504028 472.812103,317.271179 472.272552,317.038330 
	C472.057678,316.952698 471.842834,316.867065 471.231079,316.380615 
	C470.234680,315.745056 469.635193,315.510223 469.035675,315.275391 
	C466.253479,313.724487 463.471283,312.173584 460.283936,310.204742 
	C459.333618,309.544495 458.788513,309.302216 458.243378,309.059906 
	C458.029175,308.975403 457.815002,308.890930 457.195282,308.375427 
	C455.580139,307.338867 454.370514,306.733337 453.160858,306.127808 
	C452.957642,306.043640 452.754456,305.959473 452.166992,305.481049 
	C451.174500,304.844177 450.566284,304.601593 449.958038,304.359009 
	C448.870056,303.785034 447.782074,303.211060 446.279022,302.226440 
	C445.297546,301.583679 444.731171,301.351593 444.164764,301.119507 
	C443.961639,301.037476 443.758514,300.955444 443.165863,300.440491 
	C441.548676,299.402557 440.320984,298.797546 439.093292,298.192566 
	C435.934784,296.441010 432.776245,294.689484 429.200806,292.472656 
	C427.545776,291.405670 426.307739,290.803925 425.069672,290.202179 
	C423.205414,289.174622 421.341125,288.147064 419.175659,286.681946 
	C418.473480,285.824371 418.072479,285.404388 417.671478,284.984436 
	C417.610321,277.992340 417.549164,271.000214 417.911072,263.555542 
	C419.225128,263.030090 420.116089,262.957214 421.184204,263.181030 
	C422.432892,264.248566 423.444702,265.123993 424.584595,265.775146 
	C454.051300,282.608246 483.510162,299.455353 513.021790,316.209534 
	C522.121765,321.375732 531.372070,326.277191 540.610962,331.466125 
	C540.668335,331.632385 540.881470,331.912170 540.881470,331.912170 
z"/>
<path fill="#4271CE" opacity="1.000000" stroke="none" 
	d="
M542.090881,355.024445 
	C551.609924,349.980225 561.209900,345.081970 570.632080,339.862885 
	C593.895325,326.977020 617.077209,313.944061 640.566284,301.326447 
	C640.560486,308.743134 640.109985,315.802032 640.046570,322.864441 
	C639.979370,330.346191 641.186340,338.087891 634.138245,343.538330 
	C634.034546,343.618469 634.045715,343.847015 634.003235,344.006317 
	C628.735840,347.177979 623.765015,351.125000 618.111633,353.287567 
	C613.169128,355.178192 607.472778,355.594299 602.085083,355.736328 
	C582.135376,356.262329 562.175598,356.405334 541.860840,356.447296 
	C541.698303,355.809723 541.894592,355.417084 542.090881,355.024445 
z"/>
<path fill="#959597" opacity="1.000000" stroke="none" 
	d="
M334.384125,238.792618 
	C334.122070,203.394699 334.195740,168.077026 334.266449,132.759354 
	C334.274994,128.489441 334.267609,124.219490 334.267609,118.342873 
	C342.035309,122.939301 348.524536,126.779198 355.089478,131.440002 
	C355.135468,139.405685 355.059204,146.550629 355.084869,153.695221 
	C355.157043,173.796616 355.271179,193.897858 355.304749,214.328537 
	C355.279144,215.101639 355.317566,215.545349 355.279053,216.442474 
	C355.150421,218.222977 354.885468,219.582977 355.084290,220.871414 
	C355.891602,226.102402 353.684113,229.172226 348.892548,231.279755 
	C344.988922,232.996719 341.481262,235.613846 337.595215,237.965271 
	C337.146027,238.317520 336.947449,238.573425 336.796631,238.866425 
	C336.104065,238.868561 335.411499,238.870712 334.384125,238.792618 
z"/>
<path fill="#4476D7" opacity="1.000000" stroke="none" 
	d="
M634.366516,343.975037 
	C634.045715,343.847015 634.034546,343.618469 634.138245,343.538330 
	C641.186340,338.087891 639.979370,330.346191 640.046570,322.864441 
	C640.109985,315.802032 640.560486,308.743134 640.924805,301.256165 
	C641.654480,300.513550 642.300110,300.197479 643.564453,299.819153 
	C644.794067,299.149506 645.404907,298.542053 646.015747,297.934631 
	C650.531555,295.247528 654.866638,292.167603 659.613647,289.982727 
	C664.454468,287.754700 666.859314,284.725586 666.014893,279.320557 
	C665.790466,277.883911 666.061646,276.369812 666.581055,274.437683 
	C668.702942,274.001678 670.349060,274.019226 672.133301,274.363037 
	C673.011169,275.309540 673.718994,276.420654 674.495605,276.470978 
	C679.830261,276.816803 680.154297,280.290009 680.046692,284.464233 
	C679.872314,291.229828 679.869690,298.006531 680.041870,304.772247 
	C680.175476,310.024567 680.227844,315.055878 675.035706,318.343628 
	C674.388855,318.753265 674.334534,320.098724 674.005676,321.010620 
	C660.913757,328.654968 647.821777,336.299347 634.366516,343.975037 
z"/>
<path fill="#406EC8" opacity="1.000000" stroke="none" 
	d="
M554.006775,233.142273 
	C561.816833,230.549347 564.375122,225.059982 563.111877,217.192062 
	C562.728516,214.804321 563.149292,212.287476 563.301758,209.357544 
	C568.614929,208.900223 573.828003,208.915146 579.771484,209.181931 
	C586.501160,210.704788 587.454529,214.812943 587.086121,220.198349 
	C586.700745,225.830978 587.031860,231.510666 586.990723,237.169373 
	C586.951599,242.536011 588.238220,248.263000 582.776794,252.186783 
	C582.162598,252.628036 582.240540,254.032730 581.682678,255.116409 
	C576.530334,258.074219 571.754150,261.018158 566.841553,263.713226 
	C558.607605,268.230469 550.286560,272.589081 542.113647,276.696472 
	C542.821716,275.596222 543.251892,274.501434 544.041199,274.081146 
	C550.493225,270.645660 551.134399,264.796234 551.046082,258.397583 
	C550.928406,249.870438 550.106384,241.215881 554.006775,233.142273 
z"/>
<path fill="#EAF0FD" opacity="1.000000" stroke="none" 
	d="
M341.793457,434.999573 
	C341.794189,428.166504 341.720551,421.832153 341.835358,415.501221 
	C341.873657,413.390442 340.814667,410.462097 344.496429,410.091919 
	C347.777954,409.761963 350.600708,409.845123 352.047363,413.889374 
	C355.018585,422.195770 358.426208,430.346619 361.684570,438.549469 
	C362.784546,441.318634 363.976074,444.051422 365.606598,447.950745 
	C366.964722,445.475769 368.011597,443.948059 368.688599,442.270996 
	C372.429138,433.005463 376.336548,423.793732 379.644012,414.372986 
	C381.130035,410.140442 383.786041,409.704712 387.343262,410.089325 
	C391.395416,410.527496 390.034027,413.726746 390.054352,415.911652 
	C390.170471,428.409973 390.143799,440.910095 390.082092,453.409180 
	C390.069885,455.884583 391.044098,459.156372 386.619049,459.073547 
	C382.527008,458.996948 383.462341,455.926941 383.447723,453.626801 
	C383.403198,446.628296 383.524994,439.628784 383.575745,432.629608 
	C383.588470,430.876251 383.577637,429.122742 383.577637,427.369293 
	C383.076416,427.220520 382.575195,427.071777 382.073975,426.923004 
	C381.189789,428.485321 380.125458,429.974091 379.452118,431.622559 
	C376.303467,439.330780 373.391602,447.138947 370.083588,454.776459 
	C369.347137,456.476746 367.367157,458.712036 365.932007,458.732269 
	C364.514343,458.752258 362.458527,456.541138 361.727203,454.855591 
	C358.348053,447.066956 355.348175,439.114197 352.174866,431.235352 
	C351.522461,429.615509 350.709717,428.060211 348.728882,426.608582 
	C348.618317,428.271942 348.405762,429.935852 348.414581,431.598572 
	C348.455200,439.264008 348.521240,446.929718 348.657379,454.593964 
	C348.705078,457.278900 348.184357,459.209595 344.886719,459.096619 
	C341.612061,458.984436 341.805695,456.699951 341.801331,454.498718 
	C341.788727,448.165680 341.794250,441.832611 341.793457,434.999573 
z"/>
<path fill="#4171CE" opacity="1.000000" stroke="none" 
	d="
M581.997559,254.990631 
	C582.240540,254.032730 582.162598,252.628036 582.776794,252.186783 
	C588.238220,248.263000 586.951599,242.536011 586.990723,237.169373 
	C587.031860,231.510666 586.700745,225.830978 587.086121,220.198349 
	C587.454529,214.812943 586.501160,210.704788 580.237061,209.184723 
	C587.365417,208.303604 594.748108,207.443268 602.154602,207.105850 
	C609.114136,206.788849 616.098816,207.024094 623.616577,207.475403 
	C624.304443,215.877304 624.448181,223.820145 624.548950,232.182037 
	C624.355225,233.704849 624.204285,234.808624 623.688171,235.925049 
	C618.231079,237.597885 612.881592,238.725052 608.102844,241.033569 
	C599.225342,245.322113 590.680786,250.299850 581.997559,254.990631 
z"/>
<path fill="#4577D9" opacity="1.000000" stroke="none" 
	d="
M666.633423,235.943802 
	C666.446716,225.939255 666.259949,215.934692 666.149231,205.467377 
	C674.867249,205.012955 683.509216,205.021286 692.577759,205.019135 
	C697.556091,205.675720 702.089478,206.579086 706.665466,206.939026 
	C710.698730,207.256271 712.195374,209.144180 712.030579,213.021805 
	C711.868774,216.829025 711.891357,220.652328 712.025696,224.461777 
	C712.184448,228.966370 711.457825,232.490387 705.710144,232.219955 
	C704.681763,232.171570 703.609375,233.059021 701.822510,233.761566 
	C692.725098,234.338684 684.362549,234.668610 675.765625,234.836639 
	C674.683655,235.101669 673.836182,235.528595 672.542847,235.960266 
	C670.275818,235.957947 668.454651,235.950867 666.633423,235.943802 
z"/>
<path fill="#3D68BD" opacity="1.000000" stroke="none" 
	d="
M462.111725,235.550980 
	C455.187958,235.664703 448.264557,235.809601 441.340363,235.882248 
	C435.871185,235.939621 430.401093,235.908142 424.664459,235.565491 
	C425.774597,234.812180 427.136810,234.125046 428.531128,234.052155 
	C439.059570,233.501663 439.061554,233.539352 439.002075,223.135437 
	C438.963928,216.460953 436.908020,214.273911 430.183624,214.036392 
	C425.382050,213.866791 420.574005,213.881714 416.019135,213.520721 
	C418.332855,212.848236 420.390350,212.177322 422.460632,212.135208 
	C444.847046,211.679810 467.235657,211.332413 489.623016,210.921082 
	C491.273163,210.890762 492.918915,210.445404 494.565887,210.450912 
	C498.684174,210.464691 502.801941,210.626877 506.794403,210.987518 
	C506.450348,211.559479 506.231812,211.873428 505.696533,212.204483 
	C504.732513,212.737030 504.085236,213.252457 503.310486,213.753296 
	C503.183075,213.738739 502.985168,213.901917 502.636230,213.933487 
	C500.774231,214.939758 499.261230,215.914459 497.548676,216.925598 
	C497.349152,216.962036 497.020355,217.199570 496.671814,217.225220 
	C493.789825,218.790863 491.256409,220.330872 488.529144,221.900604 
	C488.335297,221.930328 488.018036,222.160980 487.687988,222.196960 
	C486.105255,223.098648 484.852509,223.964386 483.434814,224.845795 
	C483.269867,224.861496 483.007660,225.064102 482.684631,225.094116 
	C481.697510,225.659378 481.033417,226.194611 480.116089,226.743912 
	C479.585388,226.942795 479.307953,227.127609 478.708130,227.351944 
	C477.139252,228.210037 475.892761,229.028595 474.469757,229.871078 
	C474.293243,229.894989 474.015533,230.118088 473.664185,230.168732 
	C469.579102,231.996582 465.845428,233.773788 462.111725,235.550980 
z"/>
<path fill="#4577D9" opacity="1.000000" stroke="none" 
	d="
M674.330078,320.867065 
	C674.334534,320.098724 674.388855,318.753265 675.035706,318.343628 
	C680.227844,315.055878 680.175476,310.024567 680.041870,304.772247 
	C679.869690,298.006531 679.872314,291.229828 680.046692,284.464233 
	C680.154297,280.290009 679.830261,276.816803 674.495605,276.470978 
	C673.718994,276.420654 673.011169,275.309540 672.602417,274.352570 
	C682.620667,273.680511 692.307861,273.345123 701.995117,273.009766 
	C703.541687,273.680756 705.049316,274.793823 706.642578,274.933868 
	C710.340698,275.258850 711.989563,277.084290 711.980042,280.670380 
	C711.973450,283.147827 711.897522,285.629974 712.018494,288.101898 
	C712.270569,293.249756 711.083069,297.534698 706.020569,300.094818 
	C704.828491,300.697632 704.108887,302.234802 703.089050,303.677673 
	C693.555603,309.583374 684.105042,315.153473 674.330078,320.867065 
z"/>
<path fill="#FCFCFE" opacity="1.000000" stroke="none" 
	d="
M624.053345,235.912415 
	C624.204285,234.808624 624.355225,233.704849 624.954468,232.193222 
	C628.177673,232.708282 630.952515,233.631195 633.708313,234.547775 
	C638.081360,221.973495 634.531982,208.696411 624.750916,200.110245 
	C624.655884,199.233612 624.560852,198.356995 624.566528,196.700562 
	C624.582397,194.411835 624.497375,192.902924 624.412354,191.393982 
	C624.678345,190.685165 624.944336,189.976334 625.693848,189.348511 
	C632.186890,192.943054 638.196411,196.456589 644.203308,200.441833 
	C644.211060,222.379776 644.279724,243.846375 644.138428,265.311615 
	C644.124878,267.376953 642.806763,269.433655 641.772583,271.312531 
	C635.762024,268.020447 630.073181,264.910217 624.408813,261.348572 
	C624.306641,252.568954 624.179993,244.240677 624.053345,235.912415 
z"/>
<path fill="#3861B3" opacity="1.000000" stroke="none" 
	d="
M415.768829,213.814270 
	C420.574005,213.881714 425.382050,213.866791 430.183624,214.036392 
	C436.908020,214.273911 438.963928,216.460953 439.002075,223.135437 
	C439.061554,233.539352 439.059570,233.501663 428.531128,234.052155 
	C427.136810,234.125046 425.774597,234.812180 424.196960,235.528580 
	C422.595734,235.877457 421.195068,235.912613 419.020721,235.738754 
	C413.816010,235.722626 409.384918,235.915497 404.953857,236.108353 
	C403.950958,236.123260 402.948029,236.138153 401.087158,236.102112 
	C396.152008,236.032913 392.074768,236.014648 388.098328,235.625366 
	C390.538086,228.165848 392.353516,221.134232 385.998108,214.730011 
	C385.998749,214.295975 385.998810,214.122330 386.467468,213.934219 
	C396.546936,213.884613 406.157898,213.849442 415.768829,213.814270 
z"/>
<path fill="#E7EEFC" opacity="1.000000" stroke="none" 
	d="
M606.252686,411.298706 
	C610.959961,409.035370 612.476990,410.735718 612.392639,415.333649 
	C612.227966,424.316254 612.210205,433.308136 612.427185,442.289032 
	C612.611511,449.918976 616.049316,453.618774 622.608704,453.935364 
	C629.807129,454.282776 633.972046,450.618256 634.116516,443.334167 
	C634.304626,433.852539 634.216858,424.364929 634.191833,414.880005 
	C634.185120,412.344116 634.311707,410.214569 637.755798,410.235138 
	C641.021423,410.254639 641.010864,412.373596 641.007629,414.635986 
	C640.993896,424.287354 641.153931,433.943054 640.916321,443.588928 
	C640.663696,453.841125 634.048706,459.719849 623.324890,459.677612 
	C612.547119,459.635162 605.896851,453.705719 605.773315,443.525818 
	C605.644226,432.890564 605.921326,422.250366 606.252686,411.298706 
z"/>
<path fill="#375EAB" opacity="1.000000" stroke="none" 
	d="
M385.997559,214.990387 
	C392.353516,221.134232 390.538086,228.165848 387.725586,235.633835 
	C384.484467,236.576431 381.716919,237.139526 378.949341,237.702637 
	C376.247986,237.764954 373.546631,237.827271 370.039062,237.689697 
	C365.143250,237.918579 361.053650,238.347366 356.964020,238.776138 
	C354.923523,238.831024 352.883057,238.885910 350.088501,238.744507 
	C347.216583,238.721191 345.098724,238.894165 342.980896,239.067139 
	C341.914856,239.058212 340.848846,239.049286 339.211548,238.782898 
	C338.359497,238.294235 338.078766,238.063049 337.798004,237.831848 
	C341.481262,235.613846 344.988922,232.996719 348.892548,231.279755 
	C353.684113,229.172226 355.891602,226.102402 355.084290,220.871414 
	C354.885468,219.582977 355.150421,218.222977 355.683472,216.444336 
	C358.789490,215.412827 361.414215,214.832870 364.503540,214.218201 
	C370.981750,214.131378 376.995392,214.079300 383.269836,214.212280 
	C384.352905,214.595032 385.175232,214.792709 385.997559,214.990387 
z"/>
<path fill="#E7EEFC" opacity="1.000000" stroke="none" 
	d="
M402.027740,441.026306 
	C406.803802,439.484863 411.354156,438.281555 415.834229,436.857117 
	C417.502533,436.326660 419.006470,435.279144 420.585327,434.467407 
	C419.388123,432.312225 418.706421,429.165436 416.881927,428.216888 
	C413.514526,426.466278 409.961426,427.283142 406.939209,430.328033 
	C405.427185,431.851379 402.902283,432.369446 400.119263,433.679321 
	C400.694305,427.029388 403.628845,424.016510 409.753723,422.273376 
	C419.464325,419.509827 427.234985,425.091095 427.539307,435.104858 
	C427.741028,441.743622 427.782532,448.387573 428.019043,455.024811 
	C428.153961,458.811127 426.172760,460.707977 423.058807,458.717987 
	C420.141998,456.854004 418.226959,458.040802 415.783417,458.920990 
	C410.237671,460.918579 403.984467,459.224121 400.863190,455.056000 
	C397.931183,451.140625 398.249512,446.325897 402.027740,441.026306 
M417.719391,452.396790 
	C421.158997,450.173981 422.279602,446.632172 420.516571,443.437134 
	C419.737610,442.025482 415.929382,441.771088 413.531677,441.867615 
	C407.424408,442.113495 404.637177,445.003082 405.581787,449.421997 
	C406.427551,453.378540 410.156677,454.838196 415.662079,453.351959 
	C416.136597,453.223877 416.584808,452.998138 417.719391,452.396790 
z"/>
<path fill="#EAF0FD" opacity="1.000000" stroke="none" 
	d="
M543.302612,422.459961 
	C555.349060,420.188080 561.271973,424.996094 561.419556,436.559265 
	C561.502014,443.024445 561.740845,449.492004 562.099854,455.947845 
	C562.352661,460.493835 558.888733,459.796051 557.202332,458.693939 
	C554.387268,456.854095 552.398560,457.810394 549.876831,458.806824 
	C544.419128,460.963440 538.116638,459.291504 534.927002,455.145020 
	C532.027832,451.376129 531.522888,445.428131 535.191833,442.363037 
	C538.388306,439.692627 542.960815,438.612213 547.005676,437.035492 
	C549.513000,436.058167 553.700012,438.650665 554.441528,434.401093 
	C554.762329,432.563202 553.061707,429.379852 551.359985,428.393066 
	C548.045837,426.471344 544.421143,427.052704 541.279236,429.870056 
	C539.589050,431.385620 537.380554,432.323059 534.865479,433.849304 
	C534.180847,427.559906 536.176270,425.198883 543.302612,422.459961 
M552.280212,441.477234 
	C549.496277,441.757294 546.630920,441.714691 543.947266,442.392090 
	C539.791382,443.441162 537.672241,447.760254 540.088135,450.708099 
	C541.515320,452.449493 544.677429,454.145752 546.634155,453.751648 
	C549.521667,453.170013 552.783447,451.226990 554.419312,448.853088 
	C555.407593,447.418915 553.622009,444.073181 552.280212,441.477234 
z"/>
<path fill="#E7EEFC" opacity="1.000000" stroke="none" 
	d="
M458.833374,431.766815 
	C463.881592,422.730133 471.495422,419.605652 479.251190,423.112579 
	C484.869995,425.653229 489.630157,435.069275 487.770996,440.775543 
	C487.400879,441.911530 485.115936,443.014618 483.655182,443.097656 
	C478.512726,443.389954 473.344421,443.262878 468.186310,443.234009 
	C464.147644,443.211426 463.755310,445.346008 465.051178,448.443359 
	C467.389893,454.033417 474.517944,455.693695 480.417725,452.386230 
	C481.929260,451.538910 484.069885,451.813751 485.921478,451.573059 
	C485.008636,453.391388 484.570770,455.871307 483.106964,456.922180 
	C472.383575,464.620789 458.127289,457.224701 457.164368,443.364380 
	C456.907288,439.664185 458.134491,435.860931 458.833374,431.766815 
M469.657043,427.945404 
	C468.168732,429.445282 466.296112,430.722626 465.272156,432.491302 
	C463.140289,436.173584 464.043488,437.572418 468.292480,437.687103 
	C471.614594,437.776764 474.981750,437.948975 478.243530,437.484680 
	C479.264587,437.339386 480.858521,435.144836 480.732880,434.056580 
	C480.155243,429.053680 476.477936,426.970764 469.657043,427.945404 
z"/>
<path fill="#929395" opacity="1.000000" stroke="none" 
	d="
M665.452515,141.576447 
	C665.614441,148.662659 665.903076,155.750214 665.827820,162.833908 
	C665.813354,164.193832 664.700684,166.095840 663.527161,166.794815 
	C658.151184,169.996796 652.573486,172.860001 646.545837,175.775604 
	C645.723206,175.465881 645.422852,175.225403 645.141113,174.517548 
	C645.145142,166.705200 645.130554,159.360245 645.336914,152.025452 
	C645.557861,152.035614 645.985474,151.922195 646.325073,151.851944 
	C648.898865,150.253571 651.133057,148.725449 653.641846,147.161499 
	C654.266541,147.010040 654.616699,146.894394 655.294312,146.744965 
	C656.816528,145.843491 658.011230,144.975815 659.404419,144.067719 
	C659.603027,144.027313 659.981873,143.883163 660.278381,143.826630 
	C661.165588,143.240250 661.756287,142.710388 662.519470,142.174286 
	C662.691956,142.168030 663.020691,142.062805 663.333252,142.045242 
	C664.247986,141.877258 664.850281,141.726852 665.452515,141.576447 
z"/>
<path fill="#E7EEFC" opacity="1.000000" stroke="none" 
	d="
M438.905182,439.990326 
	C438.904144,437.504028 438.860260,435.508331 438.910706,433.515015 
	C438.986145,430.535797 439.020691,427.769501 434.795868,427.627960 
	C434.025452,427.602173 432.911407,426.010895 432.719604,424.997711 
	C432.605774,424.396332 433.940643,422.914215 434.701324,422.857178 
	C438.292236,422.587738 438.801819,420.437103 439.065460,417.426788 
	C439.176880,416.154877 440.923309,415.026184 441.926544,413.832367 
	C443.106354,415.034088 445.182312,416.161377 445.289490,417.452179 
	C445.557434,420.677856 445.988281,422.973938 449.968903,422.898773 
	C450.623413,422.886383 451.983887,424.550629 451.828094,425.106384 
	C451.544189,426.119171 450.353729,427.637360 449.567749,427.621826 
	C445.641876,427.544159 445.403229,429.888367 445.458801,432.838837 
	C445.555878,437.989868 445.515930,443.144073 445.483215,448.296661 
	C445.464844,451.195160 445.909912,453.512848 449.532135,454.015137 
	C450.495605,454.148712 452.015594,455.953217 451.893707,456.788177 
	C451.741882,457.828308 450.284332,459.224091 449.163483,459.482910 
	C444.020447,460.670532 439.746307,457.710571 439.184174,452.435883 
	C438.763275,448.486176 438.974670,444.469086 438.905182,439.990326 
z"/>
<path fill="#FBFCFE" opacity="1.000000" stroke="none" 
	d="
M645.115967,152.015259 
	C645.130554,159.360245 645.145142,166.705200 644.760864,174.539795 
	C643.612976,175.098358 642.863892,175.167313 642.114868,175.236267 
	C637.627869,172.703629 633.140930,170.171021 628.248047,167.200836 
	C627.279114,166.539902 626.716125,166.316528 626.153076,166.093155 
	C625.601257,164.469009 624.617249,162.856079 624.574768,161.218735 
	C624.416077,155.107300 624.565918,148.987839 625.060669,142.493134 
	C632.052856,145.414993 638.584412,148.715118 645.115967,152.015259 
z"/>
<path fill="#E2EBFC" opacity="1.000000" stroke="none" 
	d="
M656.774353,458.620209 
	C652.251282,460.050964 650.812195,458.376465 650.867432,454.099854 
	C651.035156,441.112671 650.919006,428.121979 650.937073,415.132629 
	C650.940491,412.655457 650.490601,409.939056 654.455322,409.953491 
	C658.415283,409.967896 657.936951,412.672852 657.938965,415.153259 
	C657.949341,427.976074 657.973267,440.799042 657.903137,453.621490 
	C657.894409,455.221405 657.356567,456.818390 656.774353,458.620209 
z"/>
<path fill="#D0D2D6" opacity="1.000000" stroke="none" 
	d="
M645.336914,152.025436 
	C638.584412,148.715118 632.052856,145.414993 625.162720,142.029938 
	C625.242188,141.258987 625.680298,140.572952 626.736694,139.834824 
	C629.575012,138.374069 631.795105,136.965424 634.015259,135.556808 
	C634.332458,135.344147 634.649597,135.131470 635.630615,134.843903 
	C638.868103,133.151901 641.441772,131.534790 644.015442,129.917679 
	C644.446899,129.847794 644.878296,129.777908 645.833313,130.068054 
	C647.403259,130.881851 648.449707,131.335648 649.496094,131.789429 
	C649.849731,131.924088 650.203308,132.058762 650.928833,132.634888 
	C654.315125,134.667206 657.329529,136.258072 660.343933,137.848938 
	C661.063354,138.177673 661.782776,138.506424 662.717529,139.407028 
	C662.962158,140.673538 662.991394,141.368164 663.020630,142.062805 
	C663.020691,142.062805 662.691956,142.168030 662.200378,142.208725 
	C661.133118,142.794006 660.557495,143.338577 659.981873,143.883148 
	C659.981873,143.883163 659.603027,144.027313 659.058105,144.098633 
	C657.331116,145.039566 656.148926,145.909164 654.966797,146.778748 
	C654.616699,146.894394 654.266541,147.010040 653.261719,147.177124 
	C650.399902,148.793121 648.192688,150.357666 645.985474,151.922211 
	C645.985474,151.922195 645.557861,152.035614 645.336914,152.025436 
z"/>
<path fill="#D2D3D5" opacity="1.000000" stroke="none" 
	d="
M644.205933,199.970093 
	C638.196411,196.456589 632.186890,192.943054 625.997253,189.115234 
	C626.407471,188.225311 626.997742,187.649689 628.177124,186.955734 
	C629.488281,186.545868 630.210449,186.254349 631.278931,185.891388 
	C633.521118,184.808807 635.380981,183.721527 637.321533,182.805038 
	C639.983093,181.547989 643.285645,178.815460 645.292847,179.540573 
	C651.139526,181.652847 656.478638,185.170319 662.558960,188.427185 
	C656.520020,192.657104 651.720093,196.019165 646.920166,199.381226 
	C646.746948,199.477417 646.573730,199.573593 645.857605,199.813049 
	C644.945068,199.960922 644.575500,199.965515 644.205933,199.970093 
z"/>
<path fill="#EAF0FD" opacity="1.000000" stroke="none" 
	d="
M494.566345,447.944702 
	C494.567627,440.625366 494.701904,433.793335 494.515717,426.970062 
	C494.415436,423.293915 495.918243,422.362946 499.342621,422.739441 
	C501.615448,422.989319 503.993286,422.198639 506.286835,422.370728 
	C508.257080,422.518616 511.366638,422.842834 511.885529,424.013794 
	C513.287598,427.177795 510.994812,427.999481 507.986115,428.343536 
	C503.435699,428.863831 500.943085,431.552307 501.067780,436.475586 
	C501.223694,442.633667 501.052887,448.799377 501.110657,454.960968 
	C501.134186,457.470306 500.500885,459.677643 497.606445,458.883514 
	C496.329987,458.533356 495.068726,456.427948 494.696167,454.900940 
	C494.197449,452.856903 494.568390,450.600739 494.566345,447.944702 
z"/>
<path fill="#B3B4B5" opacity="1.000000" stroke="none" 
	d="
M624.606812,200.451080 
	C634.531982,208.696411 638.081360,221.973495 633.708313,234.547775 
	C630.952515,233.631195 628.177673,232.708282 624.997375,231.774200 
	C624.448181,223.820145 624.304443,215.877304 624.085938,207.471466 
	C624.161621,204.936295 624.312134,202.864105 624.606812,200.451080 
z"/>
<path fill="#E2EBFC" opacity="1.000000" stroke="none" 
	d="
M524.655884,436.015839 
	C524.653992,442.664246 524.613159,448.816589 524.669800,454.968018 
	C524.692505,457.434418 524.156494,459.703247 521.228943,458.978210 
	C519.921021,458.654236 518.181824,456.532562 518.144531,455.185089 
	C517.877502,445.548798 517.874207,435.898315 518.139648,426.262054 
	C518.176697,424.916321 519.946228,422.780548 521.253052,422.478424 
	C524.157776,421.807007 524.734924,424.071014 524.671387,426.541351 
	C524.594360,429.532196 524.655029,432.526550 524.655884,436.015839 
z"/>
<path fill="#FCFCFE" opacity="1.000000" stroke="none" 
	d="
M572.502563,407.479401 
	C573.617737,407.468658 574.732849,407.457916 576.261719,407.876770 
	C576.777771,423.753723 576.935059,439.201324 576.867493,454.647919 
	C576.862610,455.764191 575.220337,456.873291 574.339355,457.985779 
	C573.555115,456.921692 572.221558,455.919434 572.093506,454.781525 
	C571.761047,451.826202 571.913391,448.810638 571.952576,445.820160 
	C572.120056,433.039703 572.316589,420.259613 572.502563,407.479401 
z"/>
<path fill="#87ABF3" opacity="1.000000" stroke="none" 
	d="
M572.113403,407.504333 
	C572.316589,420.259613 572.120056,433.039703 571.952576,445.820160 
	C571.913391,448.810638 571.761047,451.826202 572.093506,454.781525 
	C572.221558,455.919434 573.555115,456.921692 574.339355,457.985779 
	C575.220337,456.873291 576.862610,455.764191 576.867493,454.647919 
	C576.935059,439.201324 576.777771,423.753723 576.596497,407.872864 
	C577.292419,408.842346 578.724365,410.237671 578.740784,411.649445 
	C578.906921,425.957855 578.827515,440.268982 578.853516,454.579285 
	C578.858887,457.550629 578.331299,459.874207 574.595459,459.918213 
	C570.978271,459.960754 570.104431,457.931152 570.113647,454.810211 
	C570.156250,440.333588 570.092834,425.856476 570.202515,411.380554 
	C570.212219,410.093048 571.193970,408.812897 572.113403,407.504333 
z"/>
<path fill="#C2C6CE" opacity="1.000000" stroke="none" 
	d="
M647.255920,199.403778 
	C651.720093,196.019165 656.520020,192.657104 662.558960,188.427185 
	C656.478638,185.170319 651.139526,181.652847 645.292847,179.540573 
	C643.285645,178.815460 639.983093,181.547989 637.321533,182.805038 
	C635.380981,183.721527 633.521118,184.808807 631.284851,185.724838 
	C630.944458,185.629730 630.936707,185.296051 630.936707,185.296051 
	C633.726746,183.536133 636.633911,181.931122 639.256409,179.949554 
	C640.525635,178.990540 641.260681,177.324600 642.176208,175.607498 
	C642.863892,175.167313 643.612976,175.098358 644.742310,175.007172 
	C645.422852,175.225403 645.723206,175.465881 646.153809,175.840851 
	C651.032715,179.108124 655.825989,182.176132 660.507385,185.406418 
	C662.315552,186.654053 663.869690,188.269806 665.498047,189.974396 
	C659.501648,193.296066 653.546631,196.361191 647.255920,199.403778 
z"/>
<path fill="#C2C6CE" opacity="1.000000" stroke="none" 
	d="
M461.835388,235.816681 
	C465.845428,233.773788 469.579102,231.996582 473.545929,230.479706 
	C471.748352,232.135544 469.807678,233.689743 467.672424,234.900925 
	C453.363312,243.017517 438.991669,251.024155 424.707672,259.184387 
	C423.246460,260.019135 422.229919,261.632385 421.007050,262.884369 
	C420.116089,262.957214 419.225128,263.030090 418.003357,263.103149 
	C418.911530,261.767548 419.919830,260.036469 421.425507,259.157776 
	C434.753235,251.380081 448.169159,243.753555 461.835388,235.816681 
z"/>
<path fill="#E2EBFC" opacity="1.000000" stroke="none" 
	d="
M596.239990,440.989563 
	C592.865356,440.980133 589.864807,441.217346 586.946655,440.831329 
	C585.723999,440.669647 584.676086,439.186707 583.548767,438.304474 
	C584.624023,437.385590 585.624878,435.804993 586.788696,435.674103 
	C590.044983,435.307922 593.391907,435.316315 596.654114,435.651855 
	C597.902100,435.780212 599.017395,437.197571 600.193176,438.027527 
	C599.011169,439.013184 597.829224,439.998840 596.239990,440.989563 
z"/>
<path fill="#C2C6CE" opacity="1.000000" stroke="none" 
	d="
M521.786255,416.914246 
	C520.098877,415.597534 518.132996,414.429871 517.713867,412.851501 
	C517.475098,411.952179 519.635010,409.560883 520.948608,409.358429 
	C522.130859,409.176208 524.770020,411.097931 524.741760,412.030334 
	C524.691956,413.675232 523.101257,415.273468 521.786255,416.914246 
z"/>
<path fill="#3D68BD" opacity="1.000000" stroke="none" 
	d="
M379.417358,237.774231 
	C381.716919,237.139526 384.484467,236.576431 387.624817,236.004852 
	C392.074768,236.014648 396.152008,236.032913 400.711334,236.085815 
	C399.565521,236.708542 397.954132,237.742065 396.306671,237.803177 
	C390.839905,238.005951 385.360168,237.858765 379.417358,237.774231 
z"/>
<path fill="#3D68BD" opacity="1.000000" stroke="none" 
	d="
M405.322571,236.287170 
	C409.384918,235.915497 413.816010,235.722626 418.601196,235.719711 
	C414.533997,236.095108 410.112610,236.280548 405.322571,236.287170 
z"/>
<path fill="#3D68BD" opacity="1.000000" stroke="none" 
	d="
M357.423523,238.835052 
	C361.053650,238.347366 365.143250,237.918579 369.587097,237.668777 
	C365.921875,238.196503 361.902435,238.545242 357.423523,238.835052 
z"/>
<path fill="#C2C6CE" opacity="1.000000" stroke="none" 
	d="
M660.146729,137.572891 
	C657.329529,136.258072 654.315125,134.667206 651.145142,132.822357 
	C653.976196,134.144531 656.962830,135.720688 660.146729,137.572891 
z"/>
<path fill="#C2C6CE" opacity="1.000000" stroke="none" 
	d="
M541.935303,354.882202 
	C541.894592,355.417084 541.698303,355.809723 541.346313,356.369263 
	C538.905823,355.267944 536.621094,353.999725 534.237671,352.444519 
	C536.111511,352.760071 538.084167,353.362579 540.411133,353.958710 
	C541.103455,354.214874 541.441589,354.477417 541.935303,354.882202 
z"/>
<path fill="#C2C6CE" opacity="1.000000" stroke="none" 
	d="
M643.748657,129.856750 
	C641.441772,131.534790 638.868103,133.151901 635.913696,134.787369 
	C638.182617,133.135757 640.832214,131.465775 643.748657,129.856750 
z"/>
<path fill="#C2C6CE" opacity="1.000000" stroke="none" 
	d="
M633.682190,135.568359 
	C631.795105,136.965424 629.575012,138.374069 626.984863,139.804810 
	C628.859558,138.411224 631.104309,136.995575 633.682190,135.568359 
z"/>
<path fill="#3D68BD" opacity="1.000000" stroke="none" 
	d="
M343.306824,239.234192 
	C345.098724,238.894165 347.216583,238.721191 349.650574,238.728546 
	C347.855408,239.073013 345.744110,239.237137 343.306824,239.234192 
z"/>
<path fill="#B3B4B5" opacity="1.000000" stroke="none" 
	d="
M624.227783,191.544708 
	C624.497375,192.902924 624.582397,194.411835 624.532349,196.260773 
	C624.279358,194.965683 624.161255,193.330551 624.227783,191.544708 
z"/>
<path fill="#C2C6CE" opacity="1.000000" stroke="none" 
	d="
M663.333191,142.045242 
	C662.991394,141.368164 662.962158,140.673538 662.918213,139.632919 
	C663.735229,139.880096 664.566895,140.473251 665.425537,141.321426 
	C664.850281,141.726852 664.247986,141.877258 663.333191,142.045242 
z"/>
<path fill="#C2C6CE" opacity="1.000000" stroke="none" 
	d="
M520.198486,344.475830 
	C521.326599,344.788513 522.551636,345.379517 523.880737,346.239563 
	C522.755066,345.923828 521.525269,345.339020 520.198486,344.475830 
z"/>
<path fill="#C2C6CE" opacity="1.000000" stroke="none" 
	d="
M506.186737,336.495361 
	C507.310059,336.827393 508.535919,337.434753 509.858582,338.317932 
	C508.733337,337.986023 507.511292,337.378357 506.186737,336.495361 
z"/>
<path fill="#C2C6CE" opacity="1.000000" stroke="none" 
	d="
M492.138367,328.546753 
	C493.271973,328.869995 494.514404,329.467743 495.855347,330.344147 
	C494.718292,330.022278 493.482727,329.421783 492.138367,328.546753 
z"/>
<path fill="#C2C6CE" opacity="1.000000" stroke="none" 
	d="
M478.144043,320.557007 
	C479.274963,320.884918 480.515076,321.484589 481.846130,322.365845 
	C480.709106,322.041229 479.481201,321.434967 478.144043,320.557007 
z"/>
<path fill="#C2C6CE" opacity="1.000000" stroke="none" 
	d="
M425.173492,290.480774 
	C426.307739,290.803925 427.545776,291.405670 428.888855,292.281738 
	C427.755005,291.957153 426.516144,291.358246 425.173492,290.480774 
z"/>
<path fill="#C2C6CE" opacity="1.000000" stroke="none" 
	d="
M439.190063,298.472412 
	C440.320984,298.797546 441.548676,299.402557 442.879425,300.279449 
	C441.750641,299.951660 440.518768,299.351990 439.190063,298.472412 
z"/>
<path fill="#C2C6CE" opacity="1.000000" stroke="none" 
	d="
M453.250366,306.408661 
	C454.370514,306.733337 455.580139,307.338867 456.891052,308.211945 
	C455.774872,307.882812 454.557373,307.286163 453.250366,306.408661 
z"/>
<path fill="#C2C6CE" opacity="1.000000" stroke="none" 
	d="
M649.341248,131.545807 
	C648.449707,131.335648 647.403259,130.881851 646.156860,130.135681 
	C647.033386,130.329590 648.109863,130.815903 649.341248,131.545807 
z"/>
<path fill="#B3B4B5" opacity="1.000000" stroke="none" 
	d="
M630.649963,185.296463 
	C630.936707,185.296051 630.944458,185.629730 630.938538,185.796280 
	C630.210449,186.254349 629.488281,186.545868 628.483276,186.867981 
	C628.921387,186.364670 629.642273,185.830765 630.649963,185.296463 
z"/>
<path fill="#C2C6CE" opacity="1.000000" stroke="none" 
	d="
M497.205811,331.427002 
	C497.695801,331.421631 498.274170,331.652557 498.951721,332.104889 
	C498.465302,332.105286 497.879761,331.884277 497.205811,331.427002 
z"/>
<path fill="#D0D2D6" opacity="1.000000" stroke="none" 
	d="
M626.245361,166.321335 
	C626.716125,166.316528 627.279114,166.539902 627.946594,166.973114 
	C627.479919,166.971832 626.908813,166.760666 626.245361,166.321335 
z"/>
<path fill="#C2C6CE" opacity="1.000000" stroke="none" 
	d="
M531.063354,350.607025 
	C531.572144,350.614868 532.171326,350.862762 532.859070,351.352417 
	C532.349670,351.345123 531.751770,351.096100 531.063354,350.607025 
z"/>
<path fill="#C2C6CE" opacity="1.000000" stroke="none" 
	d="
M511.223175,339.402893 
	C511.707489,339.405060 512.280151,339.643250 512.954163,340.100525 
	C512.474182,340.092682 511.892853,339.865814 511.223175,339.402893 
z"/>
<path fill="#C2C6CE" opacity="1.000000" stroke="none" 
	d="
M483.177490,323.464325 
	C483.671875,323.465759 484.257538,323.702179 484.937195,324.167114 
	C484.443695,324.163544 483.856232,323.931427 483.177490,323.464325 
z"/>
<path fill="#C2C6CE" opacity="1.000000" stroke="none" 
	d="
M472.339722,317.278137 
	C472.812103,317.271179 473.351624,317.504028 473.994446,317.939697 
	C473.534149,317.934326 472.970520,317.726105 472.339722,317.278137 
z"/>
<path fill="#C2C6CE" opacity="1.000000" stroke="none" 
	d="
M469.135315,315.508667 
	C469.635193,315.510223 470.234680,315.745056 470.925659,316.216003 
	C470.423065,316.215424 469.829041,315.978699 469.135315,315.508667 
z"/>
<path fill="#C2C6CE" opacity="1.000000" stroke="none" 
	d="
M458.314331,309.298798 
	C458.788513,309.302216 459.333618,309.544495 459.976349,309.996704 
	C459.511078,309.983612 458.948181,309.760651 458.314331,309.298798 
z"/>
<path fill="#C2C6CE" opacity="1.000000" stroke="none" 
	d="
M450.052185,304.601044 
	C450.566284,304.601593 451.174500,304.844177 451.874115,305.329224 
	C451.359100,305.328827 450.752716,305.085968 450.052185,304.601044 
z"/>
<path fill="#3D68BD" opacity="1.000000" stroke="none" 
	d="
M337.595215,237.965271 
	C338.078766,238.063049 338.359497,238.294235 338.814545,238.733246 
	C338.394409,239.014771 337.799988,239.088486 337.001099,239.014313 
	C336.947449,238.573425 337.146027,238.317520 337.595215,237.965271 
z"/>
<path fill="#C2C6CE" opacity="1.000000" stroke="none" 
	d="
M444.247650,301.357666 
	C444.731171,301.351593 445.297546,301.583679 445.965698,302.030396 
	C445.488464,302.028595 444.909515,301.812195 444.247650,301.357666 
z"/>
<path fill="#C2C6CE" opacity="1.000000" stroke="none" 
	d="
M417.590027,285.230377 
	C418.072479,285.404388 418.473480,285.824371 418.890381,286.469116 
	C418.440369,286.288025 417.974487,285.882172 417.590027,285.230377 
z"/>
<path fill="#4B81EE" opacity="1.000000" stroke="none" 
	d="
M702.427368,273.001007 
	C692.307861,273.345123 682.620667,273.680511 672.464233,274.026306 
	C670.349060,274.019226 668.702942,274.001678 666.652222,273.979065 
	C666.310181,261.566803 666.372864,249.159592 666.534546,236.348099 
	C668.454651,235.950867 670.275818,235.957947 672.867310,235.947540 
	C674.424988,235.619537 675.212524,235.309036 676.000000,234.998535 
	C684.362549,234.668610 692.725098,234.338684 701.544250,234.008331 
	C706.476379,235.598587 711.291809,236.586823 715.367371,238.886337 
	C731.297546,247.874222 747.001404,257.263672 762.759705,266.554199 
	C763.831360,267.186066 764.657959,268.233429 766.614807,270.010345 
	C763.873291,270.461548 762.259033,270.925110 760.634705,270.963928 
	C744.347351,271.353149 728.057373,271.633179 711.770691,272.047455 
	C708.794250,272.123138 705.829712,272.665375 702.427368,273.001007 
z"/>
<path fill="#4B81EE" opacity="1.000000" stroke="none" 
	d="
M842.957764,239.076523 
	C839.561890,241.472809 836.567078,241.401306 833.392456,239.321579 
	C830.055603,237.135574 826.552673,235.203003 823.122314,233.159698 
	C823.292725,232.569641 823.463135,231.979584 823.633545,231.389526 
	C834.093933,230.914581 844.554321,230.439621 855.014648,229.964676 
	C855.194214,230.631805 855.373718,231.298935 855.553223,231.966080 
	C851.465027,234.273819 847.376831,236.581573 842.957764,239.076523 
z"/>
<path fill="#4C81EE" opacity="1.000000" stroke="none" 
	d="
M383.009064,214.027206 
	C376.995392,214.079300 370.981750,214.131378 364.063232,214.150055 
	C360.561859,214.077484 357.965332,214.038315 355.368774,213.999146 
	C355.271179,193.897858 355.157043,173.796616 355.084869,153.695221 
	C355.059204,146.550629 355.135468,139.405685 355.207306,131.727478 
	C359.966431,133.625946 364.772644,135.900497 369.385162,138.516556 
	C390.948547,150.746506 412.458557,163.070618 434.354187,175.437195 
	C435.597443,175.757568 436.474060,176.001816 437.543243,176.088806 
	C446.948212,170.968033 456.225311,166.120255 465.359436,161.016678 
	C483.678101,150.781387 501.918671,140.406311 520.575317,130.394012 
	C521.328247,132.588654 521.697266,134.478226 521.966553,136.868210 
	C521.770264,159.190994 521.673706,181.013367 521.260559,202.945374 
	C517.876282,204.978500 514.808472,206.901962 511.454376,208.935898 
	C510.550873,209.569412 509.933716,210.092484 509.014832,210.609009 
	C508.115417,210.644821 507.517670,210.687180 506.919922,210.729523 
	C502.801941,210.626877 498.684174,210.464691 494.565887,210.450912 
	C492.918915,210.445404 491.273163,210.890762 489.623016,210.921082 
	C467.235657,211.332413 444.847046,211.679810 422.460632,212.135208 
	C420.390350,212.177322 418.332855,212.848236 416.019135,213.520721 
	C406.157898,213.849442 396.546936,213.884613 386.236206,213.786285 
	C384.693970,213.777618 383.851532,213.902420 383.009064,214.027206 
z"/>
<path fill="#D2D3D5" opacity="1.000000" stroke="none" 
	d="
M506.794403,210.987534 
	C507.517670,210.687180 508.115417,210.644821 509.477936,210.694351 
	C512.502747,210.257126 514.762817,209.728012 517.469116,209.150604 
	C521.617493,208.071777 526.367615,210.914749 529.131104,206.128326 
	C529.218872,206.165314 529.408386,206.145157 529.631592,206.184418 
	C529.854858,206.223679 530.308167,206.316467 530.433533,206.604996 
	C534.410767,208.962723 538.262634,211.031921 542.114502,213.101135 
	C540.752747,214.413742 539.591736,216.078720 537.999084,216.986145 
	C513.724121,230.817749 489.390503,244.546356 465.080231,258.316071 
	C463.687225,259.105103 462.377258,260.040710 459.745789,261.733185 
	C467.554932,266.190063 474.370178,270.079712 481.770447,274.276245 
	C500.992493,285.274200 519.605957,296.007050 538.315796,306.569183 
	C539.667175,307.332062 542.047852,307.502960 543.387451,306.829803 
	C547.829651,304.597717 552.014404,301.853363 556.641296,299.246521 
	C560.044495,297.524902 563.118408,295.887695 566.161926,294.195648 
	C585.573120,283.403839 604.977600,272.599915 624.384338,261.799988 
	C630.073181,264.910217 635.762024,268.020447 641.705322,271.612488 
	C640.538330,273.355194 639.200378,274.729218 637.677490,275.852478 
	C634.835938,277.948273 631.887024,279.898376 628.982727,281.909088 
	C628.982727,281.909088 628.618896,282.049988 628.076843,282.114990 
	C626.346741,283.063538 625.158691,283.947021 623.970642,284.830536 
	C623.970642,284.830536 623.569153,284.984558 623.077881,285.074890 
	C622.039734,285.625763 621.492981,286.086334 620.946167,286.546875 
	C619.957214,287.055054 618.968262,287.563263 617.266724,288.141846 
	C609.686035,292.354309 602.817993,296.496399 595.949890,300.638489 
	C595.581848,300.770905 595.213867,300.903320 594.202881,301.114502 
	C592.365784,302.084961 591.171631,302.976624 589.977417,303.868256 
	C589.977417,303.868256 589.585693,304.015533 589.037354,304.086121 
	C587.312195,305.014862 586.135376,305.873047 584.958618,306.731232 
	C584.609009,306.858215 584.259338,306.985199 583.313843,307.182983 
	C582.137939,307.791595 581.557922,308.329376 580.977966,308.867188 
	C580.977966,308.867188 580.600098,309.018219 580.054932,309.095337 
	C578.329956,310.053894 577.150208,310.935333 575.970459,311.816772 
	C575.970459,311.816772 575.564331,311.976410 574.978027,312.068359 
	C569.577881,315.006561 564.764038,317.852783 559.950256,320.698975 
	C559.610962,320.838776 559.271729,320.978577 558.280701,321.183716 
	C551.937134,324.599335 546.245300,327.949585 540.553528,331.299866 
	C531.372070,326.277191 522.121765,321.375732 513.021790,316.209534 
	C483.510162,299.455353 454.051300,282.608246 424.584595,265.775146 
	C423.444702,265.123993 422.432892,264.248566 421.184204,263.181030 
	C422.229919,261.632385 423.246460,260.019135 424.707672,259.184387 
	C438.991669,251.024155 453.363312,243.017517 467.672424,234.900925 
	C469.807678,233.689743 471.748352,232.135544 473.897278,230.429062 
	C474.015533,230.118088 474.293243,229.894989 474.822296,229.863083 
	C476.577728,228.991577 477.804108,228.151993 479.030487,227.312408 
	C479.307953,227.127609 479.585388,226.942795 480.462830,226.737732 
	C481.711121,226.166336 482.359375,225.615219 483.007660,225.064087 
	C483.007660,225.064102 483.269867,224.861496 483.795959,224.837250 
	C485.554016,223.928986 486.786041,223.044983 488.018036,222.160980 
	C488.018036,222.160980 488.335297,221.930328 488.916473,221.916840 
	C492.005219,220.335419 494.512787,218.767487 497.020355,217.199570 
	C497.020355,217.199570 497.349152,216.962036 497.918213,216.900818 
	C499.986572,215.860382 501.485870,214.881149 502.985168,213.901917 
	C502.985168,213.901917 503.183075,213.738739 503.643250,213.741547 
	C504.740082,213.225357 505.376678,212.706360 506.013306,212.187378 
	C506.231812,211.873428 506.450348,211.559479 506.794403,210.987534 
z"/>
<path fill="#406CC2" opacity="1.000000" stroke="none" 
	d="
M556.297913,299.305542 
	C552.014404,301.853363 547.829651,304.597717 543.387451,306.829803 
	C542.047852,307.502960 539.667175,307.332062 538.315796,306.569183 
	C519.605957,296.007050 500.992493,285.274200 482.112457,274.342957 
	C486.660645,271.142639 491.356964,268.014130 496.259766,265.252106 
	C515.254150,254.551483 534.314270,243.967529 553.678345,233.241211 
	C550.106384,241.215881 550.928406,249.870438 551.046082,258.397583 
	C551.134399,264.796234 550.493225,270.645660 544.041199,274.081146 
	C543.251892,274.501434 542.821716,275.596222 541.860840,276.918823 
	C538.437622,279.465851 535.378601,281.472504 531.552734,283.982300 
	C534.346191,285.656342 536.164612,286.709717 537.947083,287.820862 
	C544.070801,291.638184 550.181946,295.475677 556.297913,299.305542 
z"/>
<path fill="#B3B4B5" opacity="1.000000" stroke="none" 
	d="
M521.577087,202.835739 
	C521.673706,181.013367 521.770264,159.190994 522.339355,136.978394 
	C529.283081,139.732056 535.754333,142.875946 542.225586,146.019836 
	C542.446533,153.625168 542.758728,161.229324 542.856628,168.836243 
	C542.922729,173.974136 542.686768,179.115936 542.132141,184.429703 
	C538.078064,183.000702 534.477844,181.397980 530.595093,179.755722 
	C529.900452,180.510986 529.129517,181.306686 529.131470,182.100494 
	C529.151306,190.115570 529.297607,198.130310 529.408386,206.145157 
	C529.408386,206.145157 529.218872,206.165314 528.780090,206.041870 
	C526.086548,204.890869 523.831848,203.863312 521.577087,202.835739 
z"/>
<path fill="#FBFCFE" opacity="1.000000" stroke="none" 
	d="
M530.877563,179.795273 
	C534.477844,181.397980 538.078064,183.000702 541.971680,184.805679 
	C542.253845,194.056396 542.242737,203.104874 542.173035,212.627228 
	C538.262634,211.031921 534.410767,208.962723 530.612183,206.208069 
	C530.736206,196.946838 530.806885,188.371048 530.877563,179.795273 
z"/>
<path fill="#FBFCFE" opacity="1.000000" stroke="none" 
	d="
M542.241028,145.553741 
	C535.754333,142.875946 529.283081,139.732056 522.439087,136.477997 
	C521.697266,134.478226 521.328247,132.588654 520.911865,130.297974 
	C521.397766,129.335098 521.930969,128.773346 523.020752,128.064041 
	C524.217590,127.433708 524.857849,126.950912 525.498169,126.468109 
	C527.765320,125.318092 530.032410,124.168083 532.881348,123.080872 
	C536.343445,126.087357 539.223877,129.031036 542.104309,131.974701 
	C542.155029,136.345688 542.205750,140.716675 542.241028,145.553741 
z"/>
<path fill="#B3B4B5" opacity="1.000000" stroke="none" 
	d="
M542.286499,131.616150 
	C539.223877,129.031036 536.343445,126.087357 533.191833,122.918488 
	C534.990906,121.456276 536.949036,119.862740 539.187012,119.158920 
	C540.073853,118.880013 542.542053,120.479904 542.634583,121.392242 
	C542.963989,124.641663 542.581604,127.963280 542.286499,131.616150 
z"/>
<path fill="#B3B4B5" opacity="1.000000" stroke="none" 
	d="
M525.174744,126.431862 
	C524.857849,126.950912 524.217590,127.433708 523.268738,127.909569 
	C523.590576,127.400291 524.220947,126.897949 525.174744,126.431862 
z"/>
<path fill="#C2C6CE" opacity="1.000000" stroke="none" 
	d="
M629.341553,281.859314 
	C631.887024,279.898376 634.835938,277.948273 637.677490,275.852478 
	C639.200378,274.729218 640.538330,273.355194 642.026978,271.794373 
	C642.806763,269.433655 644.124878,267.376953 644.138428,265.311615 
	C644.279724,243.846375 644.211060,222.379776 644.203308,200.441818 
	C644.575500,199.965515 644.945068,199.960922 645.592041,199.946350 
	C645.871826,222.087799 645.764709,244.240234 645.964233,266.389893 
	C646.006714,271.106720 644.799866,274.360474 640.315002,276.332153 
	C636.677246,277.931427 633.231384,279.967316 629.341553,281.859314 
z"/>
<path fill="#C2C6CE" opacity="1.000000" stroke="none" 
	d="
M596.295776,300.616364 
	C602.817993,296.496399 609.686035,292.354309 616.935120,288.193848 
	C610.424622,292.315063 603.533081,296.454651 596.295776,300.616364 
z"/>
<path fill="#C2C6CE" opacity="1.000000" stroke="none" 
	d="
M540.610962,331.466125 
	C546.245300,327.949585 551.937134,324.599335 558.009216,321.231384 
	C552.786865,324.727570 547.184265,328.241516 541.231567,331.833801 
	C540.881470,331.912170 540.668335,331.632385 540.610962,331.466125 
z"/>
<path fill="#C2C6CE" opacity="1.000000" stroke="none" 
	d="
M560.300659,320.671112 
	C564.764038,317.852783 569.577881,315.006561 574.765259,312.116516 
	C570.309570,314.929565 565.480347,317.786407 560.300659,320.671112 
z"/>
<path fill="#C2C6CE" opacity="1.000000" stroke="none" 
	d="
M624.299072,284.789307 
	C625.158691,283.947021 626.346741,283.063538 627.885254,282.151978 
	C627.033020,282.998596 625.830261,283.873322 624.299072,284.789307 
z"/>
<path fill="#C2C6CE" opacity="1.000000" stroke="none" 
	d="
M576.298340,311.777649 
	C577.150208,310.935333 578.329956,310.053894 579.856506,309.140442 
	C579.010986,309.985138 577.818604,310.861847 576.298340,311.777649 
z"/>
<path fill="#C2C6CE" opacity="1.000000" stroke="none" 
	d="
M585.283569,306.696472 
	C586.135376,305.873047 587.312195,305.014862 588.831909,304.125885 
	C587.986023,304.950623 586.797302,305.806152 585.283569,306.696472 
z"/>
<path fill="#C2C6CE" opacity="1.000000" stroke="none" 
	d="
M590.307373,303.826294 
	C591.171631,302.976624 592.365784,302.084961 593.914612,301.170227 
	C593.058594,302.026215 591.847961,302.905273 590.307373,303.826294 
z"/>
<path fill="#C2C6CE" opacity="1.000000" stroke="none" 
	d="
M581.275146,308.814087 
	C581.557922,308.329376 582.137939,307.791595 583.037231,307.223022 
	C582.761902,307.715210 582.167114,308.238098 581.275146,308.814087 
z"/>
<path fill="#4271CE" opacity="1.000000" stroke="none" 
	d="
M645.695557,298.011780 
	C645.404907,298.542053 644.794067,299.149506 643.838623,299.818542 
	C644.121094,299.283081 644.748230,298.685974 645.695557,298.011780 
z"/>
<path fill="#C2C6CE" opacity="1.000000" stroke="none" 
	d="
M621.228516,286.539520 
	C621.492981,286.086334 622.039734,285.625763 622.867859,285.121185 
	C622.603027,285.562164 622.056946,286.047150 621.228516,286.539520 
z"/>
<path fill="#3D68BD" opacity="1.000000" stroke="none" 
	d="
M355.304749,214.328522 
	C357.965332,214.038315 360.561859,214.077484 363.598694,214.184784 
	C361.414215,214.832870 358.789490,215.412827 355.760345,215.990936 
	C355.317566,215.545349 355.279144,215.101639 355.304749,214.328522 
z"/>
<path fill="#4D82EE" opacity="1.000000" stroke="none" 
	d="
M556.641296,299.246521 
	C550.181946,295.475677 544.070801,291.638184 537.947083,287.820862 
	C536.164612,286.709717 534.346191,285.656342 531.552734,283.982300 
	C535.378601,281.472504 538.437622,279.465851 541.749390,277.236816 
	C550.286560,272.589081 558.607605,268.230469 566.841553,263.713226 
	C571.754150,261.018158 576.530334,258.074219 581.682678,255.116394 
	C590.680786,250.299850 599.225342,245.322113 608.102844,241.033569 
	C612.881592,238.725052 618.231079,237.597885 623.688171,235.925049 
	C624.179993,244.240677 624.306641,252.568954 624.408813,261.348602 
	C604.977600,272.599915 585.573120,283.403839 566.161926,294.195648 
	C563.118408,295.887695 560.044495,297.524902 556.641296,299.246521 
z"/>
<path fill="#467AE0" opacity="1.000000" stroke="none" 
	d="
M675.765625,234.836639 
	C675.212524,235.309036 674.424988,235.619537 673.313110,235.942780 
	C673.836182,235.528595 674.683655,235.101669 675.765625,234.836639 
z"/>
<path fill="#C2C6CE" opacity="1.000000" stroke="none" 
	d="
M496.671814,217.225220 
	C494.512787,218.767487 492.005219,220.335419 489.110321,221.887115 
	C491.256409,220.330872 493.789825,218.790863 496.671814,217.225220 
z"/>
<path fill="#C2C6CE" opacity="1.000000" stroke="none" 
	d="
M502.636230,213.933487 
	C501.485870,214.881149 499.986572,215.860382 498.117737,216.864380 
	C499.261230,215.914459 500.774231,214.939758 502.636230,213.933487 
z"/>
<path fill="#C2C6CE" opacity="1.000000" stroke="none" 
	d="
M478.708130,227.351929 
	C477.804108,228.151993 476.577728,228.991577 474.998810,229.839172 
	C475.892761,229.028595 477.139252,228.210037 478.708130,227.351929 
z"/>
<path fill="#C2C6CE" opacity="1.000000" stroke="none" 
	d="
M487.687988,222.196960 
	C486.786041,223.044983 485.554016,223.928986 483.960907,224.821548 
	C484.852509,223.964386 486.105255,223.098648 487.687988,222.196960 
z"/>
<path fill="#C2C6CE" opacity="1.000000" stroke="none" 
	d="
M505.696533,212.204498 
	C505.376678,212.706360 504.740082,213.225357 503.770691,213.756104 
	C504.085236,213.252457 504.732513,212.737030 505.696533,212.204498 
z"/>
<path fill="#C2C6CE" opacity="1.000000" stroke="none" 
	d="
M482.684631,225.094116 
	C482.359375,225.615219 481.711121,226.166336 480.716095,226.723633 
	C481.033417,226.194611 481.697510,225.659378 482.684631,225.094116 
z"/>
<path fill="#3D68BD" opacity="1.000000" stroke="none" 
	d="
M383.269836,214.212280 
	C383.851532,213.902420 384.693970,213.777618 385.767670,213.800751 
	C385.998810,214.122330 385.998749,214.295975 385.998108,214.730011 
	C385.175232,214.792709 384.352905,214.595032 383.269836,214.212280 
z"/>
<path fill="#5C8DF0" opacity="1.000000" stroke="none" 
	d="
M417.382324,452.607300 
	C416.584808,452.998138 416.136597,453.223877 415.662079,453.351959 
	C410.156677,454.838196 406.427551,453.378540 405.581787,449.421997 
	C404.637177,445.003082 407.424408,442.113495 413.531677,441.867615 
	C415.929382,441.771088 419.737610,442.025482 420.516571,443.437134 
	C422.279602,446.632172 421.158997,450.173981 417.382324,452.607300 
z"/>
<path fill="#5C8DF0" opacity="1.000000" stroke="none" 
	d="
M552.681458,441.531799 
	C553.622009,444.073181 555.407593,447.418915 554.419312,448.853088 
	C552.783447,451.226990 549.521667,453.170013 546.634155,453.751648 
	C544.677429,454.145752 541.515320,452.449493 540.088135,450.708099 
	C537.672241,447.760254 539.791382,443.441162 543.947266,442.392090 
	C546.630920,441.714691 549.496277,441.757294 552.681458,441.531799 
z"/>
<path fill="#5C8DF0" opacity="1.000000" stroke="none" 
	d="
M470.016479,427.828369 
	C476.477936,426.970764 480.155243,429.053680 480.732880,434.056580 
	C480.858521,435.144836 479.264587,437.339386 478.243530,437.484680 
	C474.981750,437.948975 471.614594,437.776764 468.292480,437.687103 
	C464.043488,437.572418 463.140289,436.173584 465.272156,432.491302 
	C466.296112,430.722626 468.168732,429.445282 470.016479,427.828369 
z"/>
<path fill="#C2C6CE" opacity="1.000000" stroke="none" 
	d="
M646.325073,151.851959 
	C648.192688,150.357666 650.399902,148.793121 652.987183,147.212952 
	C651.133057,148.725449 648.898865,150.253571 646.325073,151.851959 
z"/>
<path fill="#C2C6CE" opacity="1.000000" stroke="none" 
	d="
M655.294312,146.744965 
	C656.148926,145.909164 657.331116,145.039566 658.859558,144.139053 
	C658.011230,144.975815 656.816528,145.843491 655.294312,146.744965 
z"/>
<path fill="#C2C6CE" opacity="1.000000" stroke="none" 
	d="
M660.278381,143.826630 
	C660.557495,143.338577 661.133118,142.794006 662.027893,142.214966 
	C661.756287,142.710388 661.165588,143.240250 660.278381,143.826630 
z"/>
<path fill="#8698BD" opacity="1.000000" stroke="none" 
	d="
M521.260559,202.945374 
	C523.831848,203.863312 526.086548,204.890869 528.692322,206.004898 
	C526.367615,210.914749 521.617493,208.071777 517.036621,209.082489 
	C514.685425,208.983582 513.213074,208.904495 511.740723,208.825439 
	C514.808472,206.901962 517.876282,204.978500 521.260559,202.945374 
z"/>
<path fill="#C2C6CE" opacity="1.000000" stroke="none" 
	d="
M511.454376,208.935883 
	C513.213074,208.904495 514.685425,208.983582 516.590332,209.130768 
	C514.762817,209.728012 512.502747,210.257126 509.779602,210.700897 
	C509.933716,210.092484 510.550873,209.569412 511.454376,208.935883 
z"/>
<path fill="#C2C6CE" opacity="1.000000" stroke="none" 
	d="
M530.595093,179.755722 
	C530.806885,188.371048 530.736206,196.946838 530.486816,205.919540 
	C530.308167,206.316467 529.854858,206.223679 529.631592,206.184418 
	C529.297607,198.130310 529.151306,190.115570 529.131470,182.100494 
	C529.129517,181.306686 529.900452,180.510986 530.595093,179.755722 
z"/>
</svg>